# xmcd
#
# Track frame offsets: 
#        150
#        14249
#        31244
#        47591
#        63645
#
# Disc length: 1166 seconds
#
# Revision: 0
# Processed by: cddbd v1.5.2PL0 Copyright (c) Steve Scherf et al.
# Submitted via: ExactAudioCopyFreeDBPlugin 1.0
#
DISCID=40048c05
DTITLE=Ali As - Amnesia 2.0 Bonus EP (Ltd. Brudingo Fan Box Edition)
DYEAR=2015
DGENRE=Rap
TTITLE0=Bin wie ich bin
TTITLE1=Ali As feat. Musiye - Fernglas
TTITLE2=Blaue Lagune
TTITLE3=Zombie
TTITLE4=Endzeithippie
EXTD=
EXTT0=
EXTT1=
EXTT2=
EXTT3=
EXTT4=
PLAYORDER=
